<svg width="50" height="50" viewBox="0 0 50 50" fill="none" xmlns="http://www.w3.org/2000/svg">
<g clip-path="url(#clip0_47_1782)">
<path d="M48.6672 7.58113C49.0839 7.17777 49.4163 6.6952 49.6451 6.16158C49.8739 5.62796 49.9945 5.05397 49.9998 4.4731C50.0051 3.89223 49.8951 3.31612 49.676 2.77839C49.457 2.24065 49.1334 1.75205 48.7242 1.34111C48.3149 0.930164 47.8281 0.605099 47.2923 0.384882C46.7564 0.164664 46.1822 0.0537057 45.6032 0.0584776C45.0241 0.0632494 44.4518 0.183657 43.9196 0.412676C43.3875 0.641695 42.9061 0.974738 42.5036 1.39237L25.0247 18.9204L7.55157 1.39237C7.15233 0.962562 6.67087 0.617822 6.13592 0.378718C5.60098 0.139614 5.0235 0.0110447 4.43794 0.00068082C3.85239 -0.00968306 3.27075 0.0983715 2.72773 0.318396C2.18471 0.538421 1.69143 0.865909 1.27731 1.28132C0.863198 1.69674 0.536735 2.19157 0.317399 2.73629C0.0980635 3.28102 -0.00965275 3.86449 0.000678688 4.45188C0.0110101 5.03928 0.139177 5.61857 0.377533 6.15519C0.615888 6.69182 0.959548 7.17479 1.38801 7.5753L18.8495 25.1091L1.37638 42.6371C0.606056 43.4664 0.186681 44.5633 0.206615 45.6966C0.226549 46.83 0.684235 47.9113 1.48325 48.7128C2.28226 49.5144 3.36021 49.9735 4.49001 49.9935C5.61981 50.0135 6.71324 49.5928 7.53995 48.82L25.0247 31.292L42.4978 48.8259C43.3245 49.5986 44.4179 50.0193 45.5477 49.9993C46.6775 49.9793 47.7555 49.5202 48.5545 48.7187C49.3535 47.9172 49.8112 46.8358 49.8311 45.7025C49.8511 44.5691 49.4317 43.4722 48.6614 42.6429L31.1999 25.1091L48.6672 7.58113Z" fill="#25281F"/>
</g>
<defs>
<clipPath id="clip0_47_1782">
<rect width="50" height="50" fill="white"/>
</clipPath>
</defs>
</svg>
