<svg width="50" height="50" viewBox="0 0 50 50" fill="none" xmlns="http://www.w3.org/2000/svg">
<g clip-path="url(#clip0_30_386)">
<path d="M2.77779 50C1.99075 50 1.33056 49.6 0.797231 48.8C0.263898 48 -0.00184224 47.0111 9.61169e-06 45.8333C9.61169e-06 44.6527 0.266676 43.6625 0.80001 42.8625C1.33334 42.0625 1.9926 41.6639 2.77779 41.6666H47.2222C48.0093 41.6666 48.6694 42.0666 49.2028 42.8666C49.7361 43.6666 50.0018 44.6555 50 45.8333C50 47.0139 49.7333 48.0041 49.2 48.8041C48.6667 49.6041 48.0074 50.0027 47.2222 50H2.77779ZM2.77779 29.1667C1.99075 29.1667 1.33056 28.7666 0.797231 27.9667C0.263898 27.1667 -0.00184224 26.1778 9.61169e-06 25C9.61169e-06 23.8194 0.266676 22.8292 0.80001 22.0292C1.33334 21.2292 1.9926 20.8305 2.77779 20.8333H47.2222C48.0093 20.8333 48.6694 21.2333 49.2028 22.0333C49.7361 22.8333 50.0018 23.8222 50 25C50 26.1805 49.7333 27.1708 49.2 27.9708C48.6667 28.7708 48.0074 29.1694 47.2222 29.1667H2.77779ZM2.77779 8.33334C1.99075 8.33334 1.33056 7.93334 0.797231 7.13334C0.263898 6.33334 -0.00184224 5.34445 9.61169e-06 4.16668C9.61169e-06 2.98612 0.266676 1.99585 0.80001 1.19585C1.33334 0.395848 1.9926 -0.00276336 2.77779 1.44175e-05H47.2222C48.0093 1.44175e-05 48.6694 0.400014 49.2028 1.20001C49.7361 2.00001 50.0018 2.9889 50 4.16668C50 5.34723 49.7333 6.33751 49.2 7.13751C48.6667 7.93751 48.0074 8.33612 47.2222 8.33334H2.77779Z" fill="#25281F"/>
</g>
<defs>
<clipPath id="clip0_30_386">
<rect width="50" height="50" fill="white"/>
</clipPath>
</defs>
</svg>
